<?xml version="1.0" encoding="UTF-8" standalone="no"?>
<!-- Generator: Adobe Illustrator 19.0.0, SVG Export Plug-In . SVG Version: 6.00 Build 0)  -->

<svg
   xmlns:dc="http://purl.org/dc/elements/1.1/"
   xmlns:cc="http://creativecommons.org/ns#"
   xmlns:rdf="http://www.w3.org/1999/02/22-rdf-syntax-ns#"
   xmlns:svg="http://www.w3.org/2000/svg"
   xmlns="http://www.w3.org/2000/svg"
   xmlns:sodipodi="http://sodipodi.sourceforge.net/DTD/sodipodi-0.dtd"
   xmlns:inkscape="http://www.inkscape.org/namespaces/inkscape"
   version="1.1"
   id="Layer_1"
   x="0px"
   y="0px"
   viewBox="0 0 512 512"
   style="enable-background:new 0 0 512 512;"
   xml:space="preserve"
   sodipodi:docname="coding.svg"
   inkscape:version="0.92.1 r15371"
   inkscape:export-filename="C:\Users\Admin\Documents\code.png"
   inkscape:export-xdpi="96.937508"
   inkscape:export-ydpi="96.937508"><metadata
     id="metadata79"><rdf:RDF><cc:Work
         rdf:about=""><dc:format>image/svg+xml</dc:format><dc:type
           rdf:resource="http://purl.org/dc/dcmitype/StillImage" /></cc:Work></rdf:RDF></metadata><defs
     id="defs77" /><sodipodi:namedview
     pagecolor="#ffffff"
     bordercolor="#666666"
     borderopacity="1"
     objecttolerance="10"
     gridtolerance="10"
     guidetolerance="10"
     inkscape:pageopacity="0"
     inkscape:pageshadow="2"
     inkscape:window-width="1366"
     inkscape:window-height="705"
     id="namedview75"
     showgrid="false"
     inkscape:zoom="0.5234375"
     inkscape:cx="313.396"
     inkscape:cy="240.23425"
     inkscape:window-x="-8"
     inkscape:window-y="-8"
     inkscape:window-maximized="1"
     inkscape:current-layer="Layer_1" /><polygon
     style="fill:#000000"
     points="223.797,407.946 288.203,407.946 295.956,440.249 303.995,473.732 207.993,473.732 216.031,440.249 "
     id="polygon10"
     transform="matrix(0.43757823,0,0,0.39870929,289.87038,22.911383)" /><polygon
     style="fill:#999999"
     points="288.203,407.946 295.956,440.249 216.031,440.249 223.797,407.946 249.925,375.918 "
     id="polygon12"
     transform="matrix(0.43757823,0,0,0.39870929,289.87038,22.911383)" /><path
     style="fill:#cccccc;stroke-width:0.41769189"
     d="M 513.91043,47.961897 V 172.05537 c 0,7.46024 -6.63805,13.50866 -14.82557,13.50866 H 304.69597 c -8.18752,-7.9e-4 -14.82559,-6.04842 -14.82559,-13.50866 V 47.961897 c 0,-7.460243 6.63807,-13.508677 14.82559,-13.508677 h 194.38932 c 8.18709,-3.9e-4 14.82514,6.048434 14.82514,13.508677 z"
     id="path14"
     inkscape:connector-curvature="0" /><path
     style="fill:#e6e6e6;stroke-width:0.41769189"
     d="M 513.91043,47.961897 V 172.05537 c 0,7.46024 -6.63805,13.50866 -14.82557,13.50866 H 379.98655 L 426.48538,34.45322 h 72.59948 c 8.18752,-3.9e-4 14.82557,6.048434 14.82557,13.508677 z"
     id="path16"
     inkscape:connector-curvature="0" /><rect
     y="52.984844"
     style="fill:#9bd7f4;stroke-width:0.41769189"
     width="224.04005"
     height="114.04759"
     id="rect18"
     x="289.87039" /><polygon
     style="fill:#c8edfc"
     points="512,361.469 218.976,361.469 299.174,75.427 512,75.427 "
     id="polygon20"
     transform="matrix(0.43757823,0,0,0.39870929,289.87038,22.911383)" /><rect
     x="367.63458"
     y="208.07796"
     style="fill:#e6e6e6;stroke-width:0.41769189"
     width="68.505943"
     height="7.4303465"
     id="rect22" /><g
     id="g28"
     transform="matrix(0.43757823,0,0,0.39870929,289.87038,22.911383)"><rect
       y="69.835999"
       style="fill:#b3b3b3"
       width="512"
       height="11.182"
       id="rect24"
       x="0" /><rect
       y="356.83499"
       style="fill:#b3b3b3"
       width="512"
       height="11.182"
       id="rect26"
       x="0" /></g><g
     id="g36"
     transform="matrix(0.43757823,0,0,0.39870929,289.87038,22.911383)"><polygon
       style="fill:#4d4d4d"
       points="222.99,173.429 154.456,218.448 222.99,263.467 212.758,279.043 120.512,218.448 212.758,157.852 "
       id="polygon30" /><polygon
       style="fill:#4d4d4d"
       points="362.512,218.454 293.968,173.428 304.206,157.848 396.455,218.454 304.206,279.046 293.968,263.467 "
       id="polygon32" /><polygon
       style="fill:#4d4d4d"
       points="224.666,306.343 274.326,125.62 284.327,128.367 292.303,130.553 242.632,311.274 233.736,308.828 "
       id="polygon34" /></g><g
     id="g42"
     transform="matrix(0.43757823,0,0,0.39870929,289.87038,22.911383)"><polygon
       style="fill:#808080"
       points="292.303,130.553 242.632,311.274 233.736,308.828 284.327,128.367 "
       id="polygon38" /><polygon
       style="fill:#808080"
       points="362.512,218.454 293.968,173.428 304.206,157.848 396.455,218.454 304.206,279.046 293.968,263.467 "
       id="polygon40" /></g><g
     id="g44"
     transform="matrix(0.50571509,0,0,0.40237502,152.61818,228.95947)" /><g
     id="g46"
     transform="matrix(0.50571509,0,0,0.40237502,152.61818,228.95947)" /><g
     id="g48"
     transform="matrix(0.50571509,0,0,0.40237502,152.61818,228.95947)" /><g
     id="g50"
     transform="matrix(0.50571509,0,0,0.40237502,152.61818,228.95947)" /><g
     id="g52"
     transform="matrix(0.50571509,0,0,0.40237502,152.61818,228.95947)" /><g
     id="g54"
     transform="matrix(0.50571509,0,0,0.40237502,152.61818,228.95947)" /><g
     id="g56"
     transform="matrix(0.50571509,0,0,0.40237502,152.61818,228.95947)" /><g
     id="g58"
     transform="matrix(0.50571509,0,0,0.40237502,152.61818,228.95947)" /><g
     id="g60"
     transform="matrix(0.50571509,0,0,0.40237502,152.61818,228.95947)" /><g
     id="g62"
     transform="matrix(0.50571509,0,0,0.40237502,152.61818,228.95947)" /><g
     id="g64"
     transform="matrix(0.50571509,0,0,0.40237502,152.61818,228.95947)" /><g
     id="g66"
     transform="matrix(0.50571509,0,0,0.40237502,152.61818,228.95947)" /><g
     id="g68"
     transform="matrix(0.50571509,0,0,0.40237502,152.61818,228.95947)" /><g
     id="g70"
     transform="matrix(0.50571509,0,0,0.40237502,152.61818,228.95947)" /><g
     id="g72"
     transform="matrix(0.50571509,0,0,0.40237502,152.61818,228.95947)" /><flowRoot
     xml:space="preserve"
     id="flowRoot81"
     style="font-style:normal;font-weight:normal;font-size:40px;line-height:1.25;font-family:sans-serif;letter-spacing:0px;word-spacing:0px;fill:#006680;fill-opacity:1;stroke:none"
     transform="matrix(3.076559,0,0,3.3919848,-15.452697,-36.897817)"><flowRegion
       id="flowRegion83"
       style="fill:#006680"><rect
         id="rect85"
         width="322.86569"
         height="45.850746"
         x="34.388062"
         y="78.328362"
         style="fill:#006680" /></flowRegion><flowPara
       id="flowPara87"
       style="font-style:normal;font-variant:normal;font-weight:normal;font-stretch:normal;font-size:40.00013351px;font-family:Harrington;-inkscape-font-specification:'Harrington, Normal';font-variant-ligatures:normal;font-variant-caps:normal;font-variant-numeric:normal;font-feature-settings:normal;text-align:start;writing-mode:lr-tb;text-anchor:start">RONTO</flowPara></flowRoot><rect
     style="fill:#ffdd55;stroke-width:1.68386209"
     id="rect99"
     width="214.8329"
     height="158.48145"
     x="38.208954"
     y="30.567173" /><rect
     style="fill:#ffe680;stroke-width:1.52807987"
     id="rect115"
     width="39.897545"
     height="188.82895"
     x="38.208954"
     y="189.04863" /><text
     xml:space="preserve"
     style="font-style:normal;font-weight:normal;font-size:99.66169739px;line-height:1.25;font-family:sans-serif;letter-spacing:0px;word-spacing:0px;fill:#800080;fill-opacity:1;stroke:none;stroke-width:2.49154234"
     x="50.045563"
     y="157.61742"
     id="text135"
     transform="scale(0.99484036,1.0051864)"><tspan
       sodipodi:role="line"
       id="tspan133"
       x="50.045563"
       y="157.61742"
       style="stroke-width:2.49154234"><tspan
         style="font-style:normal;font-variant:normal;font-weight:500;font-stretch:normal;font-size:99.66169739px;font-family:'AR BONNIE';-inkscape-font-specification:'AR BONNIE, Medium';font-variant-ligatures:normal;font-variant-caps:normal;font-variant-numeric:normal;font-feature-settings:normal;text-align:start;writing-mode:lr-tb;text-anchor:start;stroke-width:2.49154234"
         id="tspan137">CODE</tspan></tspan></text>
<flowRoot
     xml:space="preserve"
     id="flowRoot56"
     style="font-style:normal;font-weight:normal;font-size:40px;line-height:1.25;font-family:sans-serif;letter-spacing:0px;word-spacing:0px;fill:#000000;fill-opacity:1;stroke:none"
     transform="matrix(1.0506329,0,0,0.98911833,-1.9346306,0.33262194)"><flowRegion
       id="flowRegion58"><rect
         id="rect60"
         width="401.19403"
         height="336.2388"
         x="-21.014925"
         y="-21.014925" /></flowRegion><flowPara
       id="flowPara62" /></flowRoot></svg>